<svg xmlns="http://www.w3.org/2000/svg" xmlns:xlink="http://www.w3.org/1999/xlink" viewBox="0 0 195.93 56.79"><defs><style>.cls-1,.cls-4{font-size:19.08px;font-family:SegoeUI-Bold, Segoe UI;font-weight:700;letter-spacing:0.03em;}.cls-1{fill:#2e79af;}.cls-2{letter-spacing:0.03em;}.cls-3{font-size:16.35px;font-family:SegoeUI-Semibold, Segoe UI;font-weight:600;letter-spacing:0.05em;}.cls-4{fill:#00525e;}.cls-5,.cls-6,.cls-7{fill:none;stroke-miterlimit:10;stroke-width:1.5px;}.cls-5{stroke:url(#Dégradé_sans_nom_55);}.cls-6{stroke:url(#Dégradé_sans_nom_58);}.cls-7{stroke:url(#Dégradé_sans_nom_61);}</style><linearGradient id="Dégradé_sans_nom_55" x1="20.5" y1="48.65" x2="20.5" gradientUnits="userSpaceOnUse"><stop offset="0" stop-color="#51bbb1"/><stop offset="1" stop-color="#00525e"/></linearGradient><linearGradient id="Dégradé_sans_nom_58" x1="7.21" y1="11.17" x2="7.21" y2="9.67" gradientUnits="userSpaceOnUse"><stop offset="0" stop-color="#0e6871"/><stop offset="1" stop-color="#0b666f"/></linearGradient><linearGradient id="Dégradé_sans_nom_61" x1="24.29" y1="32.01" x2="24.29" y2="21.53" gradientUnits="userSpaceOnUse"><stop offset="0" stop-color="#309393"/><stop offset="1" stop-color="#237d81"/></linearGradient></defs><g id="Calque_2" data-name="Calque 2"><g id="Calque_1-2" data-name="Calque 1"><text class="cls-1" transform="translate(43.52 23.75)">essou<tspan class="cls-2" x="53.17" y="0">r</tspan><tspan x="61.26" y="0">ces </tspan><tspan class="cls-3"><tspan x="0" y="19.62">elationnelles</tspan></tspan></text><text class="cls-4" transform="translate(43.52 23.75)">essou<tspan class="cls-2" x="53.17" y="0">r</tspan><tspan x="61.26" y="0">ces </tspan><tspan class="cls-3"><tspan x="0" y="19.62">elationnelles</tspan></tspan></text><path class="cls-5" d="M2.25,47.9c1.41-.11,6.64-4.39,10.44-7.73A3.82,3.82,0,0,0,14,37.58c0-6.15-.26-3.3-.26-27.15,2,0,3.16,0,4.11.06a10.35,10.35,0,0,1,5,1.41c7.09,4.3,1.56,12.43-5.07,18.5a1.37,1.37,0,0,0-.44,1c0,.29,0,.53,0,.75a1.91,1.91,0,0,0,.33,1c4.15,6.06,7.45,11.06,9.91,14.11a1.68,1.68,0,0,0,1.32.63h0a3.18,3.18,0,0,0,1.92-.63c2.66-2,5.16-3.47,8.62-6.32a2.31,2.31,0,0,0,.82-1.84v0a2.54,2.54,0,0,0-.45-1.37c-2.46-3.58-7.46-10.65-9.15-13.19A1.3,1.3,0,0,1,30.55,23c1.7-1.79,5.94-3.74,7.22-9C39.8,5.59,33.22,1.69,26.84,1A111.17,111.17,0,0,0,14.09.84a4.36,4.36,0,0,0-2.05.6C8.84,3.66,6.69,5.19,1.52,9.17a2.18,2.18,0,0,0-.75,1.62c0,4.79,0,27.64,0,35.45C.79,47.06.58,47.9,2.25,47.9Z"/><line class="cls-6" x1="1" y1="10.42" x2="13.42" y2="10.42"/><line class="cls-7" x1="17.13" y1="31.38" x2="31.44" y2="22.16"/></g></g></svg>
